<?xml version="1.0" standalone="no"?>
<!DOCTYPE svg PUBLIC "-//W3C//DTD SVG 20010904//EN"
 "http://www.w3.org/TR/2001/REC-SVG-20010904/DTD/svg10.dtd">
<svg version="1.0" xmlns="http://www.w3.org/2000/svg"
 width="730.000000pt" height="730.000000pt" viewBox="0 0 730.000000 730.000000"
 preserveAspectRatio="xMidYMid meet">
<metadata>
Created by potrace 1.11, written by Peter Selinger 2001-2013
</metadata>
<g transform="translate(0.000000,730.000000) scale(0.100000,-0.100000)"
fill="#000000" stroke="none">
<path d="M3678 7226 c-57 -38 -69 -73 -73 -198 -3 -132 -14 -181 -61 -264 -64
-116 -130 -191 -513 -579 -257 -262 -307 -315 -460 -493 -242 -282 -465 -617
-617 -922 -138 -281 -238 -602 -271 -876 -16 -136 -9 -485 12 -580 41 -189 62
-250 127 -382 46 -95 146 -248 171 -264 7 -4 0 -15 -18 -29 -15 -13 -67 -56
-114 -97 -47 -41 -108 -94 -136 -117 -27 -24 -108 -94 -180 -157 -71 -62 -159
-135 -195 -163 -36 -27 -81 -66 -100 -86 -19 -20 -57 -56 -84 -79 -248 -212
-309 -551 -149 -827 103 -174 268 -291 438 -308 28 -3 68 -7 90 -9 22 -3 45
-5 51 -5 27 -2 54 -42 79 -116 81 -245 238 -393 495 -466 68 -19 293 -18 355
3 158 52 281 142 400 296 22 28 43 51 47 52 3 0 16 -30 29 -67 70 -215 171
-335 354 -423 329 -159 724 -4 864 340 33 83 43 100 57 100 7 0 57 -44 111
-98 107 -106 178 -152 303 -192 62 -21 95 -25 190 -25 129 1 168 7 258 41 185
69 351 241 402 414 38 129 58 141 265 154 173 12 304 78 408 208 71 90 136
234 152 338 9 57 6 178 -5 225 -42 168 -138 297 -360 485 -36 30 -67 57 -70
60 -3 4 -50 44 -105 90 -55 47 -102 87 -105 90 -3 3 -45 39 -95 80 -49 41 -95
79 -101 85 -6 5 -37 33 -69 60 -135 115 -150 129 -147 138 2 5 18 28 36 51 51
64 90 126 134 215 43 84 106 266 116 335 4 21 8 41 11 45 2 4 7 41 11 82 3 41
8 83 10 94 5 27 5 271 0 315 -3 19 -7 60 -10 90 -14 130 -44 257 -98 415 -31
93 -163 375 -180 386 -5 3 -9 9 -9 13 2 7 -5 18 -124 201 -152 233 -211 337
-266 466 -45 103 -63 189 -59 284 8 195 -8 278 -59 322 -40 35 -106 35 -155 0
-45 -32 -81 -73 -134 -154 -26 -40 -50 -73 -53 -73 -4 0 -3 17 1 38 25 110 32
272 18 382 -44 341 -258 706 -583 990 -97 85 -177 107 -237 66z"/>
</g>
</svg>
