<?xml version="1.0" encoding="utf-8"?>
<!-- Generator: Adobe Illustrator 21.0.2, SVG Export Plug-In . SVG Version: 6.00 Build 0)  -->
<svg version="1.1" id="Layer_1" xmlns="http://www.w3.org/2000/svg" xmlns:xlink="http://www.w3.org/1999/xlink" x="0px" y="0px"
	 viewBox="0 0 130.7 174.5" style="enable-background:new 0 0 130.7 174.5;" xml:space="preserve">
<style type="text/css">
	.st0{fill:#078484;}
	.st1{fill:#0599A1;}
	.st2{fill:none;stroke:#1AD3CA;stroke-width:1.5;stroke-miterlimit:10;}
	.st3{fill:none;stroke:#1AD3CA;stroke-miterlimit:10;}
	.st4{clip-path:url(#SVGID_2_);}
	.st5{fill:none;stroke:#00E5DF;stroke-width:1.5;stroke-miterlimit:10;}
	.st6{fill:none;stroke:#FF8A33;stroke-miterlimit:10;}
	.st7{clip-path:url(#SVGID_4_);}
	.st8{fill:none;stroke:#1AD3CA;stroke-width:0.5;stroke-miterlimit:10;}
	.st9{fill:#FFFFFF;}
	.st10{fill:#EF4F2E;stroke:#FFFFFF;stroke-width:3;stroke-miterlimit:10;}
</style>
<title>Bonfire Logo final filled all holes</title>
<path class="st0" d="M25.8,110.8c1.9-1.8,4-3.6,6.1-5.3c1.2-1,1.3-1.8,0.3-3c-5.7-6.7-6-13.8-1.7-21.3c3.2-3.8,7.2-6.5,12.3-6.9
	c0.9-0.1,11.2,3.7,11.9,3.5c8-3,18-1,18-1c2.5,1.4,5.6-0.2,9.3-2.2c3-1.1,6.2,0,9.2,0.8c0.8,0.5,1.6,0.9,2.4,1.5
	c7.1,4.6,9.7,13.6,6.1,21.3c-0.9,2-3.8,3.4-2.8,5.6c0.9,1.9,3.2,3,4.9,4.5c0.4,0.3,0.8,0.7,1.2,1l7.1,6.1c4.1,3.4,8.2,6.9,12.2,10.4
	c1.4,1.3,2.9,2.5,4.1,3.9c4.2,4.9,5.3,10.5,2.7,16.4c-2.5,5.7-6.9,9.2-13.2,9.2c-3.3,0-5,0.8-5.5,4.1c-0.2,0.9-0.6,1.8-1.2,2.6
	c-4.8,7.9-15,10.4-22.9,5.6c-1.7-1-3.1-2.3-4.3-3.8c-1.9-2.2-2-2.2-3,0.5c-2.9,8-11.7,12.1-19.7,9.2c-2.3-0.8-4.4-2.2-6-4
	c-2.3-2.4-3.3-5.3-4.3-8.6c-0.6,0.6-0.9,1-1.2,1.4s-0.7,0.8-1,1.2c-4.2,5-9.6,7.4-16.1,6.2c-6.5-1-11.7-5.8-13.1-12.2
	c-0.5-1.7-1.4-2.1-3-2.1c-4.5,0.1-8.8-2.1-11.4-5.8c-5.4-7.1-4.2-16.3,2.8-22c1.1-0.9,2-1.9,3-2.9c3.4-2.3,6.3-5.4,9.5-7.9"/>
<path class="st1" d="M69.4,107.7l21.4-26.1c5.1,2.2,7.4,11.2,2.5,16.9c-4.8,5.7-9.4,11.5-14.1,17.3c-8.9,10.9-17.8,21.9-26.8,32.8
	c-0.5,0.6-1.4,2.5-1.8,1.9c-1-1.7-4-7.7-5.9-9.5c-0.3-0.4-0.7-0.8-1-1.2c3.3-5.3,7.2-10.2,11.7-14.5"/>
<path class="st1" d="M55.6,125.2c-4.5,4.4-7.8,10.1-11.7,14.5c0,0-1.6-0.8-2.4-1.1l-8.2-2.2c-0.9,0.2,0.7-1.4,1.1-1.9
	c13.6-16.7,27.2-33.4,40.9-50.1c3.9-4.8,9.4-6.2,14.3-3.8c0.4,0.3,0.8,0.6,1.2,0.9l-21.4,26.1"/>
<path class="st1" d="M82.2,120.7c1.1-0.7,1.4,0.6,1.9,1.2c3.5,4.3,7,8.6,10.5,12.9c0.4,0.5,1,0.9,0.8,1.5c-0.2,0.8-1,0.4-1.6,0.5
	c-2,0.2-3.9,0.8-5.7,1.6l-6.6,5.6c-1.5,1.8-2,4.2-3.1,7c-3.4-4.2-6.5-8-9.6-11.8c-0.6-0.7-0.5-1.7,0.1-2.4c0.8-1.1,1.8-2.1,2.6-3.3
	 M75.4,129c1.2-1.7,2.5-3.3,4-4.7c0.5-0.5,1.1,0.5,1.5,1"/>
<path class="st1" d="M50.1,92.5c-5.5-2.7-12-1.3-16.1,3.2c-2.5-4.8-1.1-10.7,3.3-13.8c4.4-3.5,10.7-3.1,14.7,0.9
	c3,3.1,5.5,6.6,8.3,9.9c0.5,0.5,0.5,1.4,0,1.9c-0.1,0.1-0.1,0.1-0.2,0.1c-1.1,1.2-2.1,2.5-3.2,3.7c-1.3-1.3-3.8-1.7-4.3-3.6
	L50.1,92.5z"/>
<path class="st1" d="M42.5,115.6c0.2,0.8-0.5,1.2-0.8,1.7c-3.6,4.5-7.3,9-11,13.5c-0.5,0.5-0.8,2.2-2,0.9l-4.4-4.4
	c-1.9-1.1-4-2-6.1-2.6c1.4-1.9,3.2-3,4.8-4.5c4-3.5,8-6.9,12-10.4c1.3-1.1,2.4-1.5,3.3,0.2"/>
<path class="st1" d="M51.8,102.4c1.4,1.6,0.1,2.7-0.8,3.5c-1.2,1-1.6-0.5-2.1-1.1"/>
<path class="st1" d="M47.1,110.6c-0.8,0.9-1.4,0.3-1.9-0.3c-3.5-4.4-7.1-8.7-10.6-13.1c-0.3-0.4-0.5-0.9-0.6-1.4
	c4-4.6,10.6-5.9,16.1-3.2c1.2,0.6,2.2,1.8,3.7,1.6l0,0c0.5,1.8,1.9,3.1,3.2,4.3c-0.4,0.6-0.8,1.1-1.2,1.7"/>
<path class="st1" d="M64.8,148.4c5.6,0,10.2,4.6,10.2,10.2c0,5.6-4.6,10.2-10.2,10.2c-5.4,0.1-10.4-5-10.3-10.4
	C54.7,152.9,59.2,148.5,64.8,148.4z"/>
<path class="st1" d="M113.8,146c-1.8-0.5-2.8-2.3-4.7-2.6c-0.7-0.1-1.2-0.6-0.6-1.2 M105.2,137.1c1.7-5.3,7.3-8.3,12.6-6.8
	c5.5,1.5,8.6,7.2,7.1,12.7c-1.4,5.1-6.6,8.3-11.8,7.3c-1-0.2-1.8,0-2.6-0.9C101.5,140.2,105.2,137.1,105.2,137.1L105.2,137.1z"/>
<path class="st1" d="M15.8,150.3C14.9,150.3,16.3,150.2,15.8,150.3c-5.4,0.7-10.4-4.2-10.4-10.1c-0.1-4.6,2.9-8.7,7.3-9.9
	c4.5-1.3,9.3,0.6,11.7,4.6c0.3,0.5,0.5,1.1,0.7,1.7C25.9,139,22.2,150.5,15.8,150.3z"/>
<path class="st1" d="M90.6,113.7c-1.4-1.2-1.6-2.1-0.2-3.3c0.6-0.6,1-1.2,1.5-1.8c0.6-0.9,1.3-1,2.1-0.2
	c6.1,5.3,12.3,10.6,18.6,16.1L107,127l-1.1,0.5c-1-0.5-1.9-1.1-2.7-1.9"/>
<path class="st1" d="M33.6,164.8c-6.3-0.1-11.3-5.2-11.4-11.5c0-6.3,5.2-11.4,11.5-11.4c0,0,0,0,0,0c6.3-0.1,11.5,5,11.5,11.3
	c0.1,6.3-5,11.5-11.3,11.5C33.8,164.8,33.7,164.8,33.6,164.8z"/>
<path class="st1" d="M89.8,111c0.9,0.7,14.9,16.2,16,16.6c-1.5,1.5-3.2,2.9-4.2,4.9c-0.7,1.4-1.3,0.9-2.1,0
	c-4.2-5.2-8.4-10.3-12.7-15.4c-0.5-0.5-0.9-1.1-0.3-1.8"/>
<path class="st1" d="M64.7,88.8c-2,0-4.2-4.2-5.7-6.1c-0.4-0.5-1.2-1-0.5-1.7c0.4-0.3,0.8-0.6,1.3-0.8c1.9-1.4,6.9-1.2,6.9-1.2
	c0.6,0.1,1.2,0.3,1.7,0.5c2.7,1.1,2.9,1.5,1,3.7C69.5,83.2,67.7,88.8,64.7,88.8z"/>
<polyline class="st2" points="77.7,140.4 77.3,127.5 77.3,127.5 "/>
<ellipse transform="matrix(0.1899 -0.9818 0.9818 0.1899 -76.2525 191.1586)" class="st3" cx="77.7" cy="141.8" rx="1.6" ry="1.6"/>
<ellipse transform="matrix(0.1896 -0.9819 0.9819 0.1896 -58.2609 188.5219)" class="st3" cx="85.1" cy="129.6" rx="1" ry="1"/>
<g>
	<defs>
		<polygon id="SVGID_1_" points="86.1,131.7 86.4,127.8 77.5,126.3 75.6,128.5 		"/>
	</defs>
	<clipPath id="SVGID_2_">
		<use xlink:href="#SVGID_1_"  style="overflow:visible;"/>
	</clipPath>
	<g class="st4">
		<line class="st2" x1="84" y1="129.4" x2="75.7" y2="127.6"/>
	</g>
</g>
<polyline class="st2" points="41.6,134.3 49.7,130.4 71.6,120.5 79.8,109.7 "/>
<ellipse transform="matrix(0.6508 -0.7593 0.7593 0.6508 -88.3076 78.2278)" class="st3" cx="40.9" cy="135.1" rx="1" ry="1"/>
<ellipse transform="matrix(0.6508 -0.7593 0.7593 0.6508 -54.6721 99.1506)" class="st3" cx="80.4" cy="109" rx="0.9" ry="0.9"/>
<line class="st2" x1="50.6" y1="130.1" x2="52.5" y2="140.2"/>
<ellipse transform="matrix(0.6201 -0.7845 0.7845 0.6201 -90.8506 94.8343)" class="st3" cx="52.5" cy="141.2" rx="1" ry="1"/>
<polyline class="st2" points="90.5,91.3 83.4,94.8 64.5,103.3 57.3,112.6 "/>
<ellipse transform="matrix(0.6508 -0.7593 0.7593 0.6508 -37.0418 100.7999)" class="st3" cx="91.1" cy="90.7" rx="0.8" ry="0.8"/>
<ellipse transform="matrix(0.6508 -0.7593 0.7593 0.6508 -66.1529 82.6917)" class="st3" cx="56.8" cy="113.3" rx="0.8" ry="0.8"/>
<line class="st2" x1="82.6" y1="95" x2="77.7" y2="92.3"/>
<ellipse transform="matrix(0.6201 -0.7845 0.7845 0.6201 -42.666 95.4914)" class="st3" cx="77.3" cy="91.8" rx="0.8" ry="0.8"/>
<polyline class="st2" points="42.8,88.5 53.3,95.8 58.3,102.4 "/>
<ellipse transform="matrix(0.9995 -3.201561e-02 3.201561e-02 0.9995 -2.7701 1.3706)" class="st5" cx="41.4" cy="87.2" rx="1.9" ry="1.9"/>
<polyline class="st2" points="94.5,116.5 105,123.9 107,127 "/>
<ellipse transform="matrix(0.9995 -3.240509e-02 3.240509e-02 0.9995 -3.6852 3.0801)" class="st6" cx="93.2" cy="115.2" rx="1.9" ry="1.9"/>
<g>
	<defs>
		<polygon id="SVGID_3_" points="24.6,127.6 23,126.6 22.1,122.4 24.6,121.4 28,114.3 35.4,115.8 40.3,116.9 38.8,120.9 33.7,127.1 
			27,130.4 		"/>
	</defs>
	<clipPath id="SVGID_4_">
		<use xlink:href="#SVGID_3_"  style="overflow:visible;"/>
	</clipPath>
	<g class="st7">
		<polyline class="st2" points="23.7,127.3 26.4,123.5 29.4,126.3 35.6,123.5 36,123.3 36.5,123.1 38.7,122 		"/>
		<polyline class="st2" points="31.2,125.5 34.6,114.1 41.5,108.8 		"/>
		<line class="st2" x1="27.5" y1="120.3" x2="26.4" y2="123.5"/>
		<ellipse transform="matrix(0.8413 -0.5406 0.5406 0.8413 -60.3249 34.064)" class="st8" cx="27.8" cy="119.8" rx="0.9" ry="0.9"/>
	</g>
</g>
<rect x="40.8" y="43.5" class="st9" width="47.7" height="73.9"/>
<path class="st10" d="M101.8,58.3c-8.4-12.5-8.8-16.4-8.4-20.8c0.5-5.2-1.5-8.3-5.5-2c-3.2,4.9-6.4,14.4-3.9-1
	C87.2,17.1,70.5,3.5,69.3,2.8S65.4,1.3,65.7,6c0.4,6.2-2.4,9.6-14.2,21.3S19.3,61.5,19.3,87.5c0,25.4,20.6,36.5,46.1,36.5
	s46.1-11.1,46.1-36.5C111.4,76.4,107.9,67.4,101.8,58.3 M65.3,117.4c-13.3,0-24.1-5.7-24.3-18.9h0c0,0,0-0.1,0-0.2c0,0,0-0.1,0-0.1
	l0,0c0-6.5,1.2-12.9,3.5-19c4.8-11.6,7-10.1,8.8-6c2.1,4.8-0.4-3.7,9.1-16s3,1.6,14.6,13.4c9.7,9.9,12.7,19.2,12.7,27.6
	C89.7,111.6,78.8,117.4,65.3,117.4"/>
<path class="st1" d="M95,141.8c6.6,0.1,11.9,5.5,11.9,12.1c-0.1,6.5-5.3,11.8-11.9,11.9c-6.3,0.1-12.2-5.9-12.1-12.2
	C83.2,147.1,88.5,142,95,141.8z"/>
<path class="st3" d="M15.1,145.8c-3.4,0.1-6.2-2.6-6.3-6c-0.1-3.4,2.6-6.2,6-6.3c0.2,0,0.4,0,0.5,0c3.4,0,6.1,2.8,6,6.2
	C21.4,143.2,18.6,145.9,15.1,145.8C15.2,145.8,15.2,145.8,15.1,145.8z"/>
<path class="st3" d="M115.5,146.3c-3.4,0.1-6.2-2.6-6.3-6c-0.1-3.4,2.6-6.2,6-6.3c0.2,0,0.4,0,0.5,0c3.4,0,6.1,2.8,6,6.2
	C121.7,143.7,118.9,146.4,115.5,146.3C115.5,146.3,115.5,146.3,115.5,146.3z"/>
<path class="st3" d="M33.7,157.7c-2.3,0.1-4.3-1.8-4.3-4.1s1.8-4.3,4.1-4.3c0.1,0,0.2,0,0.4,0c2.3,0,4.2,1.9,4.1,4.3
	C38,155.8,36.1,157.7,33.7,157.7C33.7,157.7,33.7,157.7,33.7,157.7z"/>
<path class="st3" d="M33.7,161.5c-4.5,0.1-8.2-3.5-8.3-8c-0.1-4.5,3.5-8.2,8-8.3c0.2,0,0.4,0,0.6,0c4.5,0.1,8,3.8,7.9,8.3
	C41.9,158.1,38.2,161.6,33.7,161.5z"/>
<path class="st3" d="M94.5,158c-2.3,0.1-4.3-1.8-4.3-4.1c-0.1-2.3,1.8-4.3,4.1-4.3c0.1,0,0.2,0,0.4,0c2.3,0,4.2,1.9,4.1,4.3
	C98.8,156.2,96.8,158.1,94.5,158C94.5,158,94.5,158,94.5,158z"/>
<path class="st3" d="M94.5,161.9c-4.5,0.1-8.2-3.5-8.3-8c-0.1-4.5,3.5-8.2,8-8.3c0.2,0,0.4,0,0.6,0c4.5,0.1,8,3.8,7.9,8.3
	S98.9,162,94.5,161.9L94.5,161.9z"/>
<path class="st3" d="M64.7,164.7c-3.4,0.1-6.2-2.6-6.3-6c-0.1-3.4,2.6-6.2,6-6.3c0.2,0,0.4,0,0.6,0c3.4,0,6.1,2.8,6.1,6.2
	c0,3.4-2.8,6.1-6.2,6.1C64.8,164.7,64.7,164.7,64.7,164.7z"/>
</svg>
